<svg width="100" height="100" viewBox="0 0 100 100" fill="none" xmlns="http://www.w3.org/2000/svg">
<g clip-path="url(#clip0_720_4)">
<path d="M26.579 26.6381C23.2531 27.8145 22.0612 32.4954 23.9019 37.7142C25.0211 40.8856 26.9699 43.3906 29.115 44.4152C29.5992 44.6469 29.9952 44.8028 30.4814 44.8829C31.9352 47.8159 33.8386 50.7398 35.8588 53.2741V61.1112H27.7834C17.7982 61.1112 9.59619 69.4842 9.59619 79.4698V88.7883C9.59619 89.8102 10.2258 90.7401 11.1507 91.1748C25.4834 97.9129 39.0302 100 50.2908 100C56.2184 100 61.5292 99.4213 65.9871 98.6381C80.0258 96.1714 88.7585 91.2944 89.1258 91.088C89.9578 90.621 90.4043 89.7418 90.4043 88.7883V79.4698C90.4043 69.4842 82.4265 61.1112 72.4406 61.1112H64.4783V52.5822C66.4985 50.2193 68.0676 47.5637 69.3898 44.8984C70.6049 44.7273 71.8494 44.0842 72.9652 43.0058C74.3033 41.7129 75.4585 39.8334 76.2073 37.7125C77.5581 33.8805 77.3369 30.3617 75.8066 28.2954C75.8066 9.25798 62.8645 0.000403934 49.9999 0.000403934C44.2777 0.000403934 26.9935 0.00276084 26.8198 0.000403934C26.0245 -0.0137375 25.2679 0.344175 24.7615 0.95697C24.2541 1.56943 24.0514 2.37818 24.2083 3.15798C25.0403 7.293 26.5871 11.022 28.807 14.3179L26.579 26.6381ZM35.4076 21.3667C35.3942 24.0566 34.8006 25.9445 33.7315 26.6842C33.1787 27.0671 32.4884 27.1775 31.843 27.1684L33.2248 19.4967C33.9164 20.1452 34.6457 20.7677 35.4076 21.3667ZM41.246 63.9981V58.0684C43.9396 59.8395 46.7534 60.9257 49.8804 60.9257C53.2376 60.9257 56.3975 59.6741 59.0911 57.6671V63.9981C59.0911 64.6906 59.442 65.3189 59.8787 65.7893C59.3002 69.6317 54.2352 76.2459 50.0706 80.7587C45.8521 76.1829 41.0295 69.8159 40.2588 66.0661C40.8703 65.5832 41.246 64.8374 41.246 63.9981ZM71.7282 31.423C71.8777 32.1391 71.912 34.0509 71.2396 35.9583C70.4581 38.1721 69.3292 39.3001 68.8295 39.6024C68.2666 39.3752 67.6383 39.3472 67.0514 39.5314C66.3278 39.7583 65.7369 40.2859 65.4295 40.9795C62.4315 47.7479 56.5915 55.6509 49.9999 55.6509C45.2622 55.6509 40.9093 51.5614 37.7238 46.7516C40.0076 47.6758 42.181 47.9152 43.8454 47.9492C44.5124 48.8098 45.5531 49.3267 46.7265 49.3267H51.3898C53.4033 49.3267 55.0514 47.7728 55.0514 45.7593V44.6115C55.0514 42.5981 53.4033 40.9092 51.3898 40.9092H46.7265C45.3989 40.9092 44.2406 41.6492 43.6029 42.7098C42.612 42.6688 41.3703 42.5078 40.0612 42.0189C36.3841 40.6459 33.6804 37.427 32.0039 32.4395C33.474 32.4253 35.147 32.0987 36.6861 31.0502C38.6437 29.7172 39.8868 27.5755 40.4049 24.6624C43.6625 26.462 47.3632 27.929 51.4952 29.0364C58.6356 30.9506 67.6524 31.3745 71.7282 31.423ZM50.0019 5.25731C59.1784 5.25731 69.844 10.9432 70.5366 26.0947C70.5302 26.0947 70.5245 26.0947 70.5181 26.0947C62.3305 26.0947 36.6181 24.5243 30.2228 5.25731C35.6147 5.30849 45.8393 5.25731 50.0019 5.25731ZM85.0171 87.1698C82.3235 88.5563 74.9278 91.7196 64.7608 93.4802C52.9305 95.5297 34.8487 96.0327 14.9834 87.097V79.4701C14.9834 72.393 20.7063 66.4987 27.7834 66.4987H35.0713C36.3999 74.2428 46.9716 85.0906 48.2484 86.3661C48.7632 86.8805 49.4376 87.1718 50.1124 87.1718C50.7868 87.1718 51.4615 86.8634 51.9763 86.3489C53.2531 85.0735 63.8248 74.2428 65.1538 66.4987H72.441C79.5184 66.4987 85.0174 72.3933 85.0174 79.4701V87.1698H85.0171Z" fill="#7330F4"/>
</g>
<defs>
<clipPath id="clip0_720_4">
<rect width="100" height="100" fill="white"/>
</clipPath>
</defs>
</svg>
